<!-- filepath: /c:/Coding - Copy/Projects/Portfolio/src/assets/github-logo.svg -->
<svg xmlns="http://www.w3.org/2000/svg" viewBox="0 0 24 24" fill="currentColor">
    <path d="M12 0C5.372 0 0 5.373 0 12c0 5.303 3.438 9.8 8.205 11.387.6.111.82-.261.82-.577 
    0-.285-.01-1.04-.015-2.04-3.338.724-4.042-1.61-4.042-1.61C4.422 17.07 
    3.633 16.7 3.633 16.7c-1.087-.744.084-.729.084-.729 
    1.205.084 1.838 1.236 1.838 1.236 
    1.07 1.834 2.807 1.304 3.492.997 
    .108-.775.418-1.305.762-1.604-2.665-.305-5.466-1.332-5.466-5.93 
    0-1.31.468-2.38 1.235-3.22-.123-.303-.535-1.523.117-3.176 
    0 0 1.008-.322 3.3 1.23a11.52 11.52 0 013.003-.404 
    c1.02.005 2.045.138 3.003.404 
    2.29-1.552 3.297-1.23 3.297-1.23 
    .653 1.653.242 2.873.119 3.176 
    .77.84 1.233 1.91 1.233 3.22 
    0 4.61-2.807 5.624-5.479 5.92 
    .43.37.823 1.102.823 2.222 
    0 1.606-.015 2.898-.015 3.293 
    0 .319.216.694.825.576 
    C20.565 21.796 24 17.3 24 12c0-6.627-5.373-12-12-12z"/>
</svg>